<?xml version="1.0" encoding="utf-8"?>
<!-- Generator: Adobe Illustrator 25.3.1, SVG Export Plug-In . SVG Version: 6.00 Build 0)  -->
<svg version="1.1" id="Layer_1" xmlns="http://www.w3.org/2000/svg" xmlns:xlink="http://www.w3.org/1999/xlink" x="0px" y="0px"
	 viewBox="0 0 1024 1024" style="enable-background:new 0 0 1024 1024;" xml:space="preserve">
<style type="text/css">
	.st0{fill-rule:evenodd;clip-rule:evenodd;fill:#FFFFFF;}
</style>
<path class="st0" d="M393.2,82.9c24.7-18.1,54.9-18.8,67.5-1.6l501.6,684.9c12.6,17.2,2.8,45.8-21.9,63.9
	c-24.7,18.1-54.9,18.8-67.5,1.6l-501.6-685C358.7,129.6,368.5,101,393.2,82.9z M305.6,338.4c24.7-18.1,54.9-18.8,67.5-1.6
	l319.2,435.8c12.6,17.2,2.8,45.8-21.9,63.9c-24.7,18.1-54.9,18.8-67.5,1.6L283.7,402.2C271.1,385,280.9,356.4,305.6,338.4z
	 M195.2,562.7c24.7-18.1,54.9-18.8,67.5-1.6l182.4,249.1c12.6,17.2,2.8,45.8-21.9,63.9c-24.7,18.1-54.9,18.8-67.5,1.6L173.3,626.6
	C160.7,609.4,170.5,580.8,195.2,562.7z"/>
</svg>
