<?xml version="1.0" encoding="utf-8"?>
<!-- Generator: Adobe Illustrator 25.3.1, SVG Export Plug-In . SVG Version: 6.00 Build 0)  -->
<svg version="1.1" id="Layer_1" xmlns="http://www.w3.org/2000/svg" xmlns:xlink="http://www.w3.org/1999/xlink" x="0px" y="0px"
	 viewBox="0 0 1024 1024" style="enable-background:new 0 0 1024 1024;" xml:space="preserve">
<style type="text/css">
	.st0{fill:url(#SVGID_1_);}
	.st1{fill:url(#SVGID_2_);}
	.st2{fill:#FFFFFF;}
	.st3{fill-rule:evenodd;clip-rule:evenodd;fill:#FFFFFF;}
</style>
<linearGradient id="SVGID_1_" gradientUnits="userSpaceOnUse" x1="285.6968" y1="972.6492" x2="733.7609" y2="196.5793">
	<stop  offset="0" style="stop-color:#39B54A"/>
	<stop  offset="0.2158" style="stop-color:#3DB649"/>
	<stop  offset="0.4374" style="stop-color:#49B848"/>
	<stop  offset="0.6618" style="stop-color:#5EBD45"/>
	<stop  offset="0.8867" style="stop-color:#7BC241"/>
	<stop  offset="1" style="stop-color:#8CC63F"/>
</linearGradient>
<path class="st0" d="M768,256c-141.4,0-256,114.6-256,256S397.4,768,256,768S0,653.4,0,512c0,282.8,229.2,512,512,512
	s512-229.2,512-512C1024,370.6,909.4,256,768,256z"/>
<g>
	<linearGradient id="SVGID_2_" gradientUnits="userSpaceOnUse" x1="270.827" y1="59.9359" x2="654.8698" y2="725.1174">
		<stop  offset="0" style="stop-color:#EB3337"/>
		<stop  offset="0.4189" style="stop-color:#F22858"/>
		<stop  offset="0.7672" style="stop-color:#F6216D"/>
		<stop  offset="1" style="stop-color:#F81F74"/>
	</linearGradient>
	<path class="st1" d="M512,0C229.2,0,0,229.2,0,512c0,141.4,114.6,256,256,256s256-114.6,256-256s114.6-256,256-256
		s256,114.6,256,256C1024,229.2,794.8,0,512,0z"/>
</g>
<g>
	<path class="st2" d="M400.6,301.9c-1.2-13.7-11.8-23.7-23.7-22.3l-173.3,20.1c-11.1,1.3-19.5,12.1-19.5,24.9v2.4v25.1v185.3
		c-9.1-6.3-20.3-10-32.5-10c-29.9,0-54.1,22.5-54.1,50.1c0,27.7,24.2,50.1,54.1,50.1s54.1-22.4,54.1-50.1V349.5l173.3-20v157.8
		c-9.1-6.3-20.3-10-32.5-10c-29.9,0-54.1,22.4-54.1,50.1c0,27.7,24.2,50.1,54.1,50.1s54.1-22.4,54.1-50.1V327v-22.4L400.6,301.9
		L400.6,301.9z"/>
</g>
<path class="st3" d="M737,350c9-6.6,19.9-6.8,24.5-0.6l182.2,248.8c4.6,6.2,1,16.6-8,23.2s-19.9,6.8-24.5,0.6L729,373.2
	C724.4,367,728,356.6,737,350z M705.1,442.8c9-6.6,19.9-6.8,24.5-0.6l115.9,158.3c4.6,6.2,1,16.6-8,23.2s-19.9,6.8-24.5,0.6
	L697.2,466C692.6,459.7,696.2,449.3,705.1,442.8z M665,524.3c9-6.6,19.9-6.8,24.5-0.6l66.3,90.5c4.6,6.2,1,16.6-8,23.2
	c-9,6.6-19.9,6.8-24.5,0.6l-66.3-90.5C652.5,541.2,656.1,530.8,665,524.3z"/>
</svg>
