<?xml version="1.0" encoding="utf-8"?>
<!-- Generator: Adobe Illustrator 25.3.1, SVG Export Plug-In . SVG Version: 6.00 Build 0)  -->
<svg version="1.1" id="Layer_1" xmlns="http://www.w3.org/2000/svg" xmlns:xlink="http://www.w3.org/1999/xlink" x="0px" y="0px"
	 viewBox="0 0 1024 1024" style="enable-background:new 0 0 1024 1024;" xml:space="preserve">
<style type="text/css">
	.st0{fill:#FFFFFF;}
</style>
<g>
	<path class="st0" d="M925.1,98.8c-3.4-37.3-32.3-64.5-64.6-60.8L388,92.7c-30.2,3.5-53.2,32.9-53.2,67.9v6.5v68.3v505.2
		c-24.7-17.2-55.4-27.3-88.6-27.3c-81.5,0-147.6,61.2-147.6,136.5c0,75.4,66.1,136.5,147.6,136.5s147.6-61.1,147.6-136.5V228.5
		l472.5-54.6V604c-24.7-17.1-55.4-27.3-88.6-27.3c-81.5,0-147.6,61.1-147.6,136.5s66.1,136.5,147.6,136.5s147.6-61.1,147.6-136.5
		V167.1V106v-7.2H925.1z"/>
</g>
</svg>
