<?xml version="1.0" encoding="utf-8"?>
<!-- Generator: Adobe Illustrator 25.3.1, SVG Export Plug-In . SVG Version: 6.00 Build 0)  -->
<svg version="1.1" id="Layer_1" xmlns="http://www.w3.org/2000/svg" xmlns:xlink="http://www.w3.org/1999/xlink" x="0px" y="0px"
	 viewBox="0 0 1024 1024" style="enable-background:new 0 0 1024 1024;" xml:space="preserve">
<style type="text/css">
	.st0{fill:url(#SVGID_1_);}
	.st1{fill-rule:evenodd;clip-rule:evenodd;fill:#FFFFFF;}
</style>
<g>
	<linearGradient id="SVGID_1_" gradientUnits="userSpaceOnUse" x1="149.8185" y1="873.8958" x2="873.8958" y2="149.8185">
		<stop  offset="0" style="stop-color:#39B54A"/>
		<stop  offset="0.2158" style="stop-color:#3DB649"/>
		<stop  offset="0.4374" style="stop-color:#49B848"/>
		<stop  offset="0.6618" style="stop-color:#5EBD45"/>
		<stop  offset="0.8867" style="stop-color:#7BC241"/>
		<stop  offset="1" style="stop-color:#8CC63F"/>
	</linearGradient>
	<circle class="st0" cx="511.9" cy="511.9" r="512"/>
	<path class="st1" d="M402.5,191c17.6-12.9,39.2-13.4,48.2-1.1L809,679c9,12.3,2,32.7-15.6,45.6c-17.6,12.9-39.2,13.4-48.2,1.1
		L386.8,236.6C377.8,224.3,384.9,203.9,402.5,191z M339.9,373.4c17.6-12.9,39.2-13.4,48.2-1.1l228,311.3c9,12.3,2,32.7-15.6,45.6
		s-39.2,13.4-48.2,1.1L324.3,419C315.3,406.8,322.3,386.3,339.9,373.4z M261.1,533.7c17.6-12.9,39.2-13.4,48.2-1.1l130.3,177.9
		c9,12.3,2,32.7-15.6,45.6c-17.6,12.9-39.2,13.4-48.2,1.1L245.4,579.3C236.4,567,243.4,546.6,261.1,533.7z"/>
</g>
</svg>
